<svg width="368" height="298" viewBox="0 0 368 298" fill="none" xmlns="http://www.w3.org/2000/svg">
<path d="M299.378 103.803C300.527 84.2574 298.389 64.5524 292.958 45.5894C292.596 44.3087 291.579 43.2973 290.304 42.9291C271.341 37.4985 251.636 35.3659 232.09 36.5091L216.98 21.3992C198.875 3.29368 169.512 3.29368 151.401 21.3992L136.286 36.5146C116.74 35.3714 97.035 37.5095 78.0721 42.9401C76.7969 43.3028 75.7855 44.3142 75.4172 45.5949C69.9867 64.5579 67.8485 84.2574 68.9973 103.809L53.8819 118.924C35.7764 137.029 35.7764 166.392 53.8819 184.497L68.9973 199.613C67.8485 219.158 69.9812 238.858 75.4172 257.821C75.78 259.102 76.7914 260.113 78.0721 260.481C97.035 265.912 116.74 268.05 136.286 266.901L151.401 282.017C169.512 300.128 198.869 300.128 216.98 282.017L232.09 266.907C251.636 268.055 271.341 265.923 290.304 260.492C291.579 260.13 292.596 259.113 292.958 257.837C298.389 238.869 300.527 219.169 299.378 199.624L314.494 184.508C332.605 166.403 332.605 137.04 314.494 118.935L299.378 103.803Z" fill="#6EDBFF" stroke="white" stroke-width="2" stroke-linecap="round" stroke-linejoin="round"/>
<path d="M103.251 96.6577C103.405 97.5372 103.476 98.4331 103.471 99.329C103.465 100.214 103.377 101.11 103.224 101.984C102.894 103.831 102.229 105.623 101.25 107.206C99.7057 109.706 97.5511 111.724 95.0722 113.285C92.148 115.126 88.7567 116.33 85.3488 116.929C71.5306 119.375 57.0857 112.834 47.8736 102.253C38.6559 91.6834 34.1927 77.6178 33 63.6401C34.9842 65.6189 37.4247 67.1249 39.7552 68.6804C40.8051 66.4544 41.8109 63.871 42.8553 61.6449C44.3613 67.5646 48.3793 74.6442 52.3258 78.3323C53.3756 80.9652 55.8545 84.384 59.9769 87.561C59.8505 87.528 57.9212 86.9344 57.1462 88.1436C55.948 90.0289 60.675 101.769 80.9351 101.769C79.4895 97.9164 78.5716 93.882 78.1869 89.7871H78.2089C81.5892 88.1381 85.1784 86.7805 88.9271 86.5111C89.9769 86.4342 91.0432 86.4562 92.0931 86.5771C94.8028 86.8849 97.4247 87.8688 99.4584 89.6442C101.536 91.4635 102.778 93.9644 103.251 96.6577Z" fill="#6EDBFF"/>
<path d="M212.995 219.972L273.303 212.145C257.127 220.599 238.796 224.891 220.542 224.507C218.024 222.995 215.518 221.451 212.995 219.972Z" fill="black"/>
<path d="M324.848 184.574C326.261 185.751 328.047 186.619 329.916 187.059C310.371 207.83 283.987 221.94 255.983 227.227C247.32 228.871 238.509 229.662 229.693 229.547C229.193 229.305 228.698 229.063 228.203 228.81C225.609 227.497 223.069 226.018 220.541 224.507C238.795 224.891 257.126 220.599 273.302 212.145C273.308 212.145 273.308 212.145 273.308 212.145L273.846 212.073C276.215 211.766 278.21 210.474 279.469 208.655C293.755 199.948 306.017 187.927 314.955 173.785L314.977 173.554C316.824 174.494 318.857 175.027 320.836 174.933C320.517 178.539 322.067 182.255 324.848 184.574Z" fill="white"/>
<path d="M307.282 159.488L307.348 159.802C300.005 171.987 290.501 182.865 279.426 191.797L277.337 175.681C282.597 170.558 286.956 164.512 290.166 157.9L290.298 157.735C290.787 158.142 291.32 158.499 291.87 158.801C294.239 160.104 297.009 160.516 299.713 160.417C302.236 160.329 304.798 160.005 307.282 159.488Z" fill="white"/>
<path d="M280.629 155.542C282.987 155.558 285.592 154.366 287.115 152.568C287.472 154.607 288.681 156.421 290.292 157.735C290.781 158.142 291.314 158.499 291.864 158.801C294.233 160.104 297.003 160.516 299.707 160.417C302.23 160.329 304.797 160.005 307.281 159.488C307.457 159.455 307.622 159.417 307.798 159.384C307.023 163.111 308.062 167.178 310.535 170.075C311.722 171.465 313.267 172.685 314.976 173.559C316.823 174.499 318.857 175.032 320.836 174.939C320.517 178.539 322.067 182.26 324.843 184.574C326.255 185.751 328.042 186.619 329.91 187.059C331.713 187.482 333.593 187.515 335.303 187.031C328.069 206.918 309.815 224.858 289.94 232.295C286.384 233.625 282.734 234.675 279.018 235.445C279.013 235.445 279.013 235.445 279.013 235.445" stroke="black" stroke-width="1.2" stroke-miterlimit="10" stroke-linecap="round" stroke-linejoin="round"/>
<path d="M190.849 214.789C189.843 214.723 188.843 214.696 187.842 214.712C187.513 214.718 187.183 214.723 186.853 214.74C186.04 214.773 185.226 214.822 184.413 214.899C184.033 214.932 183.654 214.976 183.275 215.015C182.115 215.158 180.972 215.333 179.828 215.553C173.65 216.73 167.637 219.027 162.014 221.654C157.524 223.754 153.159 226.085 148.746 228.316C148.746 228.316 148.746 228.316 148.74 228.316L145.854 228.69C151.269 225.722 156.551 222.451 162.014 219.577C171.479 214.591 182.049 210.694 192.646 212.025C199.968 212.942 206.547 216.224 212.989 219.978C215.512 221.457 218.018 223.001 220.536 224.513C223.059 226.03 225.598 227.503 228.198 228.816C228.693 229.064 229.187 229.311 229.687 229.553C235.821 232.499 242.351 234.593 249.035 235.814C249.024 235.901 249.008 235.989 248.997 236.072C241.78 234.907 234.75 232.829 228.198 229.872C227.934 229.751 227.67 229.63 227.401 229.504H227.395C215.941 224.188 205.426 216.383 192.641 214.954C192.047 214.877 191.443 214.828 190.849 214.789Z" fill="white"/>
<path d="M329.917 187.059C331.72 187.482 333.6 187.515 335.309 187.031C328.076 206.918 309.822 224.858 289.947 232.295C286.39 233.625 282.741 234.675 279.025 235.445C279.019 235.445 279.019 235.445 279.019 235.445C276.013 235.043 273.111 234.109 270.368 232.515C267.037 230.575 263.585 228.602 259.754 228.162C258.583 228.03 257.358 228.074 256.181 228.305L255.978 227.222C283.994 221.934 310.377 207.83 329.917 187.059Z" fill="black"/>
<path d="M282.24 65.2889C282.207 59.8804 281.465 54.4828 280.025 49.2721C279.288 46.6283 279.569 43.814 280.882 41.4066C281.998 39.3509 282.922 37.1468 283.559 35.0306C285.763 27.6543 286.835 19.9482 286.731 12.253C286.703 10.5931 285.758 2.44724 289.045 1.67773C293.145 0.704844 294.97 9.21895 295.234 11.1867C295.723 14.9188 295.657 18.6235 295.267 22.1138H295.272C295.58 20.3934 295.882 18.585 296.745 17.4802C297.608 16.3864 299.257 15.6444 300.664 16.1446C302.044 16.6338 302.654 18.0519 302.973 19.338C304.012 23.4384 303.775 27.7147 302.72 31.8206C303.534 30.9522 304.38 30.4025 305.204 30.463C308.849 30.7323 309.8 37.3941 304.853 47.4967C303.077 51.1134 301.274 53.8617 299.68 55.8954C300.115 55.3732 305.936 48.6455 309.107 49.5524C310.69 50.0086 311.267 52.5095 310.58 55.6425C314.521 49.393 318.545 41.1482 319.952 33.8983C320.215 34.9042 320.793 37.504 322.683 38.8067C323.277 39.2135 323.992 39.4938 324.871 39.5597C325.597 39.6147 326.251 39.5597 326.85 39.4113C329.494 38.7792 331.06 36.4047 332.412 33.9478C331.236 44.589 325.998 54.906 318.132 62.1724C318.616 67.3831 317.148 72.6873 314.411 77.1449C311.674 81.6081 307.722 85.2468 303.264 88.0006C296.399 92.2384 288.27 94.3985 280.206 94.1292C276.128 93.9973 272.011 93.2332 268.361 91.3974C267.625 91.0236 266.91 90.6059 266.223 90.1442C264.008 88.6601 262.095 86.7199 260.787 84.4278C260.49 83.9056 260.226 83.3725 259.99 82.8173C259.589 81.8609 259.309 80.8551 259.138 79.8327C259.116 79.7283 259.105 79.6184 259.089 79.5139V79.5084C258.38 74.5396 260.303 69.1915 264.217 66.009C266.047 64.5194 268.262 63.552 270.582 63.1288V63.1233C274.336 62.4252 278.37 63.1343 281.531 65.2999L282.24 65.2889Z" fill="white"/>
<path d="M314.977 173.554L314.955 173.785C306.012 187.927 293.755 199.948 279.469 208.655C280.591 207.05 281.14 205.038 280.871 202.949L279.42 191.797C290.495 182.865 299.999 171.987 307.342 159.802L307.276 159.488C307.452 159.455 307.617 159.417 307.793 159.384C307.018 163.11 308.057 167.178 310.53 170.075C311.723 171.465 313.273 172.685 314.977 173.554Z" fill="black"/>
<path d="M310.766 136.804C312.558 139.712 309.139 143.191 304.61 144.78C303.588 145.137 302.582 145.522 301.609 146C296.921 148.308 294.931 149.897 292.089 152.986C292.089 152.986 291.82 147.121 297.075 140.245C302.335 133.369 308.81 133.638 310.766 136.804Z" fill="white"/>
<path d="M289.183 132.401C289.469 127.02 295.619 125.009 294.998 132.401C294.372 139.8 288.705 144.367 288.705 144.367C289.661 140.904 288.891 137.788 289.183 132.401Z" fill="white"/>
<path d="M290.298 157.735L290.166 157.9C286.956 164.512 282.598 170.559 277.337 175.681L274.342 152.629L274.452 152.612C275.952 154.426 278.277 155.531 280.63 155.548C282.988 155.564 285.593 154.371 287.116 152.574C287.473 154.608 288.682 156.422 290.298 157.735Z" fill="black"/>
<path d="M276.54 17.1616C276.49 15.8865 276.787 14.5508 277.276 13.38C277.567 12.6765 278.018 11.9564 278.749 11.7421C279.447 11.5332 280.222 11.8685 280.728 12.4072C281.228 12.9348 281.508 13.6439 281.756 14.3309C283.982 20.5145 284.196 28.49 283.564 35.0308C282.927 37.147 282.003 39.3511 280.887 41.4068C279.579 43.8143 279.299 46.6285 280.03 49.2723C281.47 54.483 282.212 59.8861 282.245 65.2892L281.541 65.2947C278.381 63.129 274.346 62.42 270.592 63.118L270.526 62.7663C270.493 56.8245 269.163 50.8883 266.684 45.4852C265.563 43.0448 265.206 40.313 265.629 37.6582C267.075 28.6714 267.916 19.2393 267.448 10.2855C267.41 9.47202 267.355 8.65304 267.547 7.86704C267.734 7.07554 268.196 6.31152 268.927 5.95974C269.784 5.553 270.84 5.79485 271.604 6.35C272.412 6.93263 272.95 7.80108 273.429 8.66403C274.896 11.3243 275.94 14.188 276.54 17.1616Z" fill="#6EDBFF"/>
<path d="M266.228 90.1443L267.888 102.929L96.6059 125.168L95.0669 113.29C97.5458 111.729 99.7005 109.712 101.245 107.211C102.223 105.622 102.888 103.836 103.218 101.989L103.466 102.033L108.259 98.7079L193.971 87.5829C193.982 87.5829 193.999 87.5829 194.004 87.5774C194.543 87.5444 195.093 87.473 195.626 87.3631C195.637 87.3631 195.648 87.3576 195.659 87.3576L198.187 87.0333C196.45 88.8911 195.153 90.9798 194.356 93.4532C194.037 94.4481 193.85 95.6738 194.581 96.4158C194.999 96.8391 195.631 96.9985 196.225 96.9435C196.818 96.8885 197.374 96.6522 197.901 96.3828C200.215 95.2176 202.2 93.4092 203.568 91.2106C202.909 92.964 202.705 94.4426 202.645 96.3114C202.606 97.5481 202.81 98.9882 203.854 99.6533C204.591 100.115 205.563 100.055 206.344 99.6862C207.124 99.3125 207.746 98.6694 208.29 98.0043C209.807 96.163 210.923 94.0028 211.544 91.6998L211.731 91.5954C212.61 93.2553 213.792 94.7559 215.221 95.9816C215.259 95.8387 215.452 96.2399 215.479 96.097C216.056 93.3433 216.441 90.5236 216.221 87.7148C216.139 86.72 215.979 85.7196 215.726 84.7522L221.987 83.9387C222.471 84.6753 223.053 85.3678 223.718 86.0054C224.043 85.2524 224.285 84.4444 224.433 83.6254L256.621 79.4481C257.462 79.3436 258.286 79.3601 259.083 79.503V79.5085C259.1 79.613 259.116 79.7229 259.132 79.8273L255.362 83.8068C255.131 84.0487 255.307 84.4499 255.642 84.4499L261.133 85.0105C262.458 87.3081 264.013 88.6602 266.228 90.1443ZM193.977 87.5829L108.264 98.7079L193.977 87.5829ZM116.916 111.388C116.916 107.739 113.958 104.776 110.303 104.776C106.648 104.776 103.691 107.733 103.691 111.388C103.691 115.033 106.648 118.001 110.303 118.001C113.958 118.001 116.916 115.033 116.916 111.388Z" fill="black"/>
<path d="M255.983 227.228L256.186 228.311C253.52 228.839 251.08 230.306 249.92 232.708C249.453 233.681 249.216 234.731 249.041 235.808C242.357 234.588 235.827 232.499 229.693 229.548C238.509 229.657 247.32 228.866 255.983 227.228Z" fill="black"/>
<path d="M229.302 64.1293C232.43 66.9215 233.32 72.429 231.528 76.5569C229.753 74.853 228.582 72.7423 228.186 70.5492C227.796 68.3561 228.192 66.097 229.302 64.1293Z" fill="black"/>
<path d="M224.899 242.805C224.85 242.821 224.795 242.838 224.746 242.849H224.74C217.985 241.287 211.241 239.732 204.485 238.176C197.18 231.822 191.409 223.715 187.836 214.712C188.837 214.695 189.837 214.723 190.843 214.789C194.443 219.868 199.352 223.869 204.183 227.794C210.812 233.169 217.518 238.605 224.899 242.805Z" fill="black"/>
<path d="M221.503 73.5781C224.059 75.8537 225.12 79.9486 224.439 83.6258C224.29 84.4447 224.048 85.2527 223.724 86.0058C223.059 85.3682 222.482 84.6756 221.993 83.9391C221.179 82.7078 220.624 81.3667 220.382 79.9981C220.003 77.805 220.393 75.5459 221.503 73.5781Z" fill="black"/>
<path d="M222.47 61.7166C224.697 61.6506 226.873 62.3652 228.66 63.7558C225.444 66.4381 219.865 66.5205 216.04 64.1406C217.98 62.64 220.244 61.7825 222.47 61.7166Z" fill="black"/>
<path d="M221.283 73.1545C221.25 73.1875 221.218 73.2259 221.179 73.2589C221.157 73.2864 221.135 73.3029 221.113 73.3249C217.326 74.9189 212.06 73.5228 209.054 70.2908C211.329 69.3454 213.737 69.12 215.897 69.6367C218.035 70.1534 219.931 71.3791 221.283 73.1545Z" fill="black"/>
<path d="M220.189 42.6652C220.882 43.2698 221.239 44.3526 220.772 45.1496C220.541 45.5344 220.156 45.8037 219.733 45.9631C219.315 46.1225 218.864 46.172 218.425 46.205C216.825 46.3204 215.341 46.3094 213.797 45.8862C214.517 46.4138 215.248 46.9525 215.841 47.6176C216.441 48.2882 216.908 49.0961 217.012 49.9866C217.117 50.877 216.814 51.8444 216.111 52.3941C215.374 52.9712 214.313 53.0152 213.456 52.6469C212.598 52.2841 211.933 51.5586 211.455 50.7616C210.988 49.9536 210.361 48.9917 210.076 48.1068C210.543 50.124 210.224 52.3116 209.196 54.1145C208.921 54.6037 208.537 55.0983 207.992 55.2193C207.327 55.3677 206.684 54.906 206.239 54.3948C204.991 52.9492 204.365 50.9595 204.936 49.1951C205.041 48.9972 205.123 48.7883 205.195 48.5795C205.09 48.7773 205.008 48.9862 204.936 49.1951C204.337 50.4263 203.238 51.4102 201.935 51.8554C201.243 52.1027 200.347 52.1357 199.89 51.5586C199.517 51.0969 199.594 50.4208 199.753 49.8437C200.281 47.9474 201.309 46.4688 202.98 45.4245C201.556 45.7982 200.022 45.7433 198.626 45.2761C197.835 45.0122 197.005 44.512 196.829 43.6931C196.697 43.0775 196.999 42.4289 197.467 42.0056C197.934 41.5824 198.549 41.357 199.159 41.2086C200.726 40.8459 202.243 40.9118 203.744 41.4835C202.903 40.9283 202.045 40.3622 201.369 39.6091C200.693 38.8616 200.204 37.8832 200.242 36.8719C200.275 35.8605 200.94 34.8492 201.919 34.5963C202.518 34.4424 203.155 34.5743 203.733 34.7997C205.486 35.4703 206.855 36.5531 207.465 38.323C206.822 36.5916 206.794 34.6293 207.371 32.8759C207.569 32.2768 207.844 31.6942 208.306 31.2764C208.767 30.8532 209.449 30.6278 210.037 30.8367C210.889 31.1445 211.213 32.1669 211.351 33.0628C211.648 35.0305 211.571 37.0533 211.12 38.988C211.867 37.4215 213.357 36.3167 214.847 35.4208C215.418 35.0745 216.045 34.7887 216.715 34.7502C217.386 34.7063 218.095 34.9316 218.502 35.4648C218.842 35.9045 218.936 36.5036 218.842 37.0533C218.749 37.6029 218.485 38.1141 218.172 38.5758C217.15 40.0818 215.55 41.1757 213.78 41.5824C215.077 41.4285 216.336 41.5384 217.628 41.7088C218.546 41.8352 219.497 42.0606 220.189 42.6652ZM209.531 45.2321C210.235 44.8473 210.686 44.0338 210.625 43.2259C210.57 42.4508 210.026 41.8517 209.323 41.5659C208.696 41.3021 207.701 41.39 207.173 41.7803C206.8 42.0551 206.547 42.4728 206.448 42.9235C206.272 43.715 206.596 44.5835 207.245 45.0727C207.893 45.5509 208.822 45.6223 209.531 45.2321Z" fill="white"/>
<path d="M211.741 91.5953L211.554 91.6998C210.933 93.9973 209.817 96.163 208.3 98.0043C207.756 98.6749 207.135 99.3125 206.355 99.6862C205.574 100.06 204.601 100.12 203.865 99.6532C202.82 98.9882 202.617 97.5536 202.655 96.3114C202.716 94.4425 202.919 92.964 203.579 91.2106C202.21 93.4092 200.226 95.2176 197.912 96.3828C197.384 96.6521 196.824 96.8885 196.236 96.9435C195.642 96.9929 195.01 96.839 194.592 96.4158C193.861 95.6738 194.048 94.448 194.367 93.4532C195.164 90.9797 196.455 88.8911 198.198 87.0332C198.517 86.6924 198.852 86.3627 199.198 86.0384C198.104 86.6595 196.901 87.1047 195.669 87.3575C195.653 87.3575 195.642 87.363 195.636 87.363L194.015 87.5774C194.004 87.5829 193.987 87.5829 193.982 87.5829C193.795 87.5939 193.608 87.5994 193.421 87.6049C192.437 87.6214 191.278 87.396 190.865 86.5056C190.42 85.5437 191.135 84.4554 191.893 83.7078C194.163 81.4653 197.192 79.9977 200.358 79.6129L200.545 79.3766C201.221 79.9152 201.957 80.3934 202.732 80.7617C205.079 81.905 207.894 82.2842 210.494 82.0149C209.977 83.0483 209.9 84.241 209.971 85.3953C209.971 85.4283 209.977 85.4667 209.982 85.4997C210.12 87.6324 210.735 89.7155 211.741 91.5953Z" fill="white"/>
<path d="M186.853 214.739C187.139 222.209 188.75 229.624 191.564 236.549C189.761 236.918 188.211 237.781 187.277 239.413C186.364 241.002 186.337 242.964 185.589 244.64C184.468 247.141 182.061 248.455 179.323 248.922C182.401 237.819 183.929 226.436 184.419 214.899C185.227 214.822 186.045 214.772 186.853 214.739Z" fill="black"/>
<path d="M179.834 215.559C180.977 215.339 182.126 215.163 183.28 215.02C181.906 218.246 177.926 234.461 167.901 247.054C165.966 246.169 159.15 243.151 157.183 242.371C155.677 241.777 158.771 242.772 157.183 242.371C168.033 236.561 175.425 223.754 179.427 216.18C179.564 215.971 179.696 215.767 179.834 215.559Z" fill="black"/>
<path d="M157.519 61.9576C157.805 62.2324 157.997 62.6172 157.97 63.0075C157.915 63.689 157.227 64.1287 156.59 64.3926C154.727 65.1896 152.825 65.4039 150.808 65.1896C152.061 65.6403 153.204 66.4043 154.089 67.3992C154.523 67.8829 154.908 68.5589 154.644 69.1471C154.353 69.7847 153.501 69.8946 152.803 69.8451C150.709 69.6802 148.664 68.8063 147.108 67.3937L146.911 67.3992C146.883 66.822 146.806 66.2559 146.663 65.7117C146.212 64.0518 145.196 62.4798 143.942 61.298C144.679 61.1112 145.306 60.6275 145.85 60.0943C146.872 59.0939 147.664 57.8682 148.175 56.5326L148.301 56.582C149.719 55.9005 151.28 55.5212 152.852 55.4827C153.424 55.4662 154.012 55.5047 154.534 55.7301C155.056 55.9554 155.507 56.4116 155.59 56.9778C155.71 57.7913 155.084 58.5058 154.446 59.0225C153.49 59.7975 152.66 60.3307 151.511 60.7594C153.193 60.4955 154.952 60.7044 156.535 61.353C156.881 61.5124 157.238 61.6828 157.519 61.9576Z" fill="white"/>
<path d="M148.844 52.9056C148.85 54.1423 148.608 55.379 148.163 56.5388C147.651 57.8745 146.854 59.1002 145.838 60.1006C145.293 60.6337 144.667 61.1174 143.93 61.3043C145.184 62.4805 146.206 64.0525 146.651 65.718C146.8 66.2621 146.876 66.8283 146.898 67.4054C146.953 68.5707 146.772 69.7689 146.437 70.8737C144.832 69.725 143.43 68.2574 142.512 66.504C141.605 64.7506 141.21 62.7004 141.594 60.7601C141.957 58.9463 142.979 57.3028 144.288 55.9782C145.59 54.659 147.157 53.6366 148.778 52.7297C148.866 52.6748 148.751 52.9441 148.844 52.9056Z" fill="black"/>
<path d="M138.737 75.6883C138.743 76.1665 138.292 76.5182 137.874 76.7491C136.951 77.2548 135.929 77.5846 134.879 77.7165C135.797 77.8044 136.616 78.3431 137.336 78.9202C137.611 79.1401 137.869 79.4039 138.012 79.7282C138.155 80.0525 138.171 80.4482 137.984 80.7506C137.825 81.0034 137.545 81.1573 137.253 81.2123C136.962 81.2672 136.665 81.2288 136.379 81.1573C135.445 80.921 134.61 80.3273 134.076 79.5193C134.39 80.1349 134.566 80.7835 134.719 81.4541C134.824 81.9323 134.884 82.4435 134.708 82.8997C134.538 83.3559 134.06 83.7297 133.576 83.6417C133.345 83.5977 133.136 83.4548 132.983 83.2735C132.829 83.0921 132.719 82.8777 132.62 82.6633C132.273 81.8883 132.004 81.1518 131.933 80.3053C131.801 80.7615 131.669 81.2233 131.449 81.641C131.224 82.0587 130.905 82.4435 130.482 82.6578C130.058 82.8777 129.525 82.8997 129.118 82.6469C128.701 82.3885 128.486 81.8664 128.508 81.3717C128.536 80.877 128.772 80.4153 129.085 80.0305C129.399 79.6513 129.767 79.1676 130.152 78.8598C129.234 79.4589 128.08 79.7007 126.997 79.5138C126.706 79.4644 126.387 79.3654 126.227 79.1181C126.029 78.8158 126.145 78.409 126.321 78.0957C126.81 77.2108 127.689 76.5292 128.684 76.5072C128.8 76.5182 128.915 76.5237 129.025 76.5237C128.91 76.5072 128.794 76.5017 128.684 76.5072C127.959 76.4303 127.261 76.0675 126.799 75.4959C126.552 75.1881 126.37 74.7539 126.568 74.4186C126.733 74.1492 127.085 74.0668 127.398 74.0393C128.442 73.9514 129.366 74.1987 130.185 74.8363C129.74 74.1932 129.487 73.4237 129.465 72.6432C129.448 72.2035 129.547 71.6978 129.926 71.4614C130.207 71.2856 130.586 71.313 130.883 71.4669C131.18 71.6263 131.4 71.8847 131.586 72.165C132.054 72.874 132.295 73.6491 132.284 74.501C132.405 73.9788 132.532 73.4457 132.779 72.9785C133.032 72.5058 133.428 72.0825 133.939 71.9176C134.445 71.7528 135.077 71.8957 135.379 72.3354C135.566 72.6047 135.61 72.9455 135.61 73.2753C135.599 74.2702 135.308 75.1496 134.533 75.7817C135.28 75.1441 136.247 74.7703 137.231 74.7374C137.561 74.7319 137.907 74.7593 138.199 74.9078C138.496 75.0562 138.732 75.353 138.737 75.6883ZM133.582 77.3042C133.604 76.837 133.312 76.2214 132.944 75.9741C132.68 75.7982 132.35 75.7377 132.037 75.7817C131.493 75.8532 131.009 76.2654 130.844 76.7931C130.69 77.3262 130.861 77.9363 131.279 78.2991C131.691 78.6619 132.323 78.7608 132.823 78.53C133.307 78.3101 133.554 77.8209 133.582 77.3042Z" fill="white"/>
<path d="M140.199 52.9768C140.117 54.5928 139.567 56.0933 138.644 57.2366C137.72 58.3799 136.423 59.1549 134.961 59.4517C135.005 56.687 137.363 53.8617 140.199 52.9768Z" fill="black"/>
<path d="M135.01 59.7544C137.439 60.9581 139.006 64.1791 138.692 67.0758C137.241 66.3502 136.092 65.2509 135.411 63.9482C134.746 62.6621 134.542 61.1835 134.845 59.7434C134.9 59.7434 134.955 59.7489 135.01 59.7544Z" fill="black"/>
<path d="M132.119 53.1635C132.036 54.7849 131.487 56.2855 130.563 57.4233C129.64 58.5665 128.343 59.347 126.881 59.6438C126.925 56.8791 129.283 54.0539 132.119 53.1635Z" fill="black"/>
<path d="M126.98 60.1222C129.701 60.5674 132.158 63.3102 132.62 66.2453C131.031 65.9265 129.624 65.1625 128.629 64.0852C127.64 63.0134 127.057 61.6117 126.98 60.1222Z" fill="black"/>
<path d="M110.644 104.787C113.98 104.952 116.718 107.678 116.905 111.009C117.119 114.824 114.085 117.995 110.303 117.995C106.654 117.995 103.691 115.032 103.691 111.383C103.696 107.623 106.84 104.595 110.644 104.787Z" fill="white" stroke="white" stroke-width="1.2" stroke-miterlimit="10"/>
<path d="M91.933 53.2898C93.1862 46.3532 97.0722 39.8618 102.816 35.7394C103.701 35.1073 104.668 34.5027 105.817 34.5467C106.328 34.5632 106.84 34.7336 107.208 35.0854C108.351 36.1462 107.719 37.8281 107.098 39.1473C103.19 47.3866 100.255 56.7966 99.4357 66.0198C99.1994 68.6636 98.2704 71.203 96.6545 73.3026C93.7248 77.1172 91.7076 82.251 92.0924 86.5767C91.0425 86.4558 89.9762 86.4338 88.9264 86.5108C85.1777 86.7801 81.5885 88.1377 78.2081 89.7867H78.1807C77.7135 84.7959 78.0323 79.7281 79.1535 74.8417C79.5933 72.9289 79.3514 70.9391 78.5324 69.1583C77.3782 66.6464 76.6416 63.8871 76.1579 61.0839C75.9106 57.2253 77.3232 53.2788 79.978 50.4591C80.3353 50.0744 80.7201 49.7116 81.1983 49.4972C81.671 49.2774 82.2481 49.2334 82.7043 49.4807C83.4463 49.893 83.5947 50.8823 83.6332 51.7288C83.7157 53.5866 83.6662 55.4445 83.4903 57.2913L83.5673 57.3023C83.5947 57.0439 83.6222 56.7801 83.6607 56.5218C84.2158 52.196 85.579 47.8867 88.2118 44.4074C88.6845 43.7808 89.2232 43.1707 89.9267 42.819C90.6248 42.4617 91.5372 42.4232 92.1583 42.9014C92.9388 43.495 93.1917 44.6328 92.9938 45.5947C92.3727 48.5463 91.9165 50.7175 91.933 53.2898Z" fill="#6EDBFF"/>
<path d="M66.315 47.4806C66.6778 42.9075 67.7386 38.3948 69.514 34.1515C69.8713 33.2886 70.2725 32.4201 70.9376 31.766C71.6027 31.1065 72.5865 30.6997 73.4825 30.9526C74.307 31.1889 74.9116 31.9419 75.1864 32.7554C75.4667 33.5689 75.4722 34.4483 75.4667 35.3113C75.4337 41.4564 74.9391 47.6125 75.3403 53.7466C75.4997 56.1431 75.7305 58.633 76.1593 61.0845C76.643 63.8822 77.385 66.6414 78.5338 69.1589C79.3528 70.9397 79.5946 72.9295 79.1549 74.8422C78.0336 79.7287 77.7093 84.7909 78.182 89.7873C78.5722 93.8767 79.4902 97.9166 80.9303 101.77C60.6701 101.77 55.9431 90.0291 57.1413 88.1438C57.9163 86.9346 59.8456 87.5282 59.972 87.5612C55.8496 84.3897 53.3707 80.9654 52.3209 78.3325C51.5624 76.4252 51.5459 74.9302 52.2054 74.2541C54.1842 72.1984 57.5646 74.7103 57.5646 74.7103C52.7606 67.4824 51.348 60.2545 53.8819 59.3036C56.3223 58.1163 60.4777 63.2666 60.4392 63.1512C56.7181 51.5425 58.2901 42.891 61.0109 42.0665C64.7155 40.9342 66.3095 47.4806 66.315 47.4806Z" fill="white"/>
<path d="M297.849 151.92C299.438 151.04 302.312 149.27 304.681 149.243C307.391 149.21 307.677 153.212 304.989 153.569C302.79 153.86 299.839 152.453 297.849 151.92Z" fill="white"/>
<path d="M107.747 210.996L109.402 223.748C97.7438 222.215 86.421 218.114 76.5053 211.788C66.9249 205.681 58.6746 197.513 52.447 188.015C53.6013 187.147 54.6181 186.092 55.4316 184.888C57.4708 181.87 58.3063 177.704 57.5258 174.126C57.4818 173.922 57.6028 173.725 57.8061 173.675C59.0978 173.356 60.351 172.884 61.5383 172.284C65.7266 180.073 72.0146 186.718 78.55 192.77C83.6343 197.475 88.9769 201.966 94.9406 205.494C98.9421 207.874 103.257 209.809 107.747 210.996Z" fill="white"/>
<path d="M103.801 180.568L105.736 195.491C91.0598 188.735 78.4563 177.512 70.0466 163.721C71.2669 161.539 72.1573 159.137 72.3277 156.795C72.3442 156.542 72.5915 156.377 72.8279 156.46C76.2577 157.57 80.1932 157.032 83.1888 155.003C83.3427 154.899 83.4911 154.795 83.6395 154.685C88.1906 164.738 95.1767 173.686 103.801 180.568Z" fill="white"/>
<path d="M118.713 232.212L145.849 228.689C141.886 230.86 137.857 232.877 133.625 234.455C133.174 234.625 132.729 234.785 132.273 234.939C132.268 234.944 132.262 234.95 132.251 234.95C131.916 235.065 131.575 235.186 131.229 235.29C131.031 235.362 130.833 235.422 130.63 235.488C130.228 235.615 129.816 235.741 129.409 235.862C129.019 235.978 128.623 236.093 128.233 236.197C128.14 236.225 128.052 236.247 127.958 236.269C127.584 236.373 127.216 236.472 126.837 236.56C126.381 236.676 125.93 236.791 125.468 236.89C125.292 236.928 125.111 236.972 124.935 237.005C124.633 237.071 124.331 237.137 124.023 237.192C123.957 237.214 123.896 237.225 123.83 237.231C123.402 237.319 122.973 237.401 122.544 237.478C122.159 237.55 121.775 237.615 121.39 237.67C121.044 237.725 120.697 237.775 120.346 237.83C120.016 237.874 119.681 237.923 119.351 237.967C119.263 237.978 119.18 237.989 119.098 238C118.466 238.077 117.834 238.143 117.202 238.204C116.965 238.231 116.729 238.253 116.493 238.27C116.46 238.275 116.416 238.275 116.377 238.281C116.025 238.314 115.674 238.336 115.322 238.358C115.025 238.379 114.728 238.39 114.437 238.407C114.376 238.412 114.316 238.418 114.261 238.418C114.107 238.429 113.953 238.434 113.805 238.44C113.519 238.456 113.233 238.467 112.942 238.473C112.727 238.484 112.513 238.489 112.293 238.489C111.864 238.5 111.43 238.506 110.996 238.506C100.492 238.511 89.9883 236.021 80.6717 231.124C64.5174 222.632 50.7102 208.396 46.1316 190.615C48.4181 190.323 50.6113 189.406 52.4471 188.015C58.6746 197.513 66.9249 205.681 76.5054 211.787C86.4211 218.114 97.7439 222.214 109.402 223.748L109.589 225.188C110.166 229.613 114.206 232.751 118.625 232.223C118.658 232.218 118.68 232.218 118.713 232.212Z" fill="black"/>
<path d="M105.729 195.491L107.746 210.996C103.256 209.809 98.9409 207.874 94.9395 205.505C88.9702 201.977 83.6331 197.486 78.5488 192.781C72.008 186.729 65.72 180.084 61.5371 172.295C63.7852 171.158 65.8024 169.558 67.4019 167.596C68.3528 166.436 69.2652 165.128 70.0457 163.726C78.4499 177.512 91.0534 188.735 105.729 195.491Z" fill="black"/>
<path d="M98.8202 142.213L103.8 180.574C95.176 173.686 88.1899 164.744 83.6333 154.685C86.4145 152.58 88.5087 148.848 88.8 145.363C88.822 145.116 89.0584 144.962 89.2947 145.039C92.4552 146.077 96.2368 144.945 98.2815 142.285L98.8202 142.213Z" fill="black"/>
<path d="M143.288 240.37C145.052 239.463 146.844 240.057 148.669 240.364C159.904 233.879 170.133 225.595 178.927 216.075C177.311 216.477 175.261 216.455 173.991 217.532C160.552 228.943 132.833 240.81 129.409 240.106C131.739 240.15 134.334 241.326 135.224 241.881C135.933 242.321 137.236 241.772 138.016 242.046C139.748 242.651 141.452 240.084 143.288 240.37Z" fill="black"/>
<path d="M129.574 115.643C133.226 115.643 136.187 112.683 136.187 109.031C136.187 105.379 133.226 102.418 129.574 102.418C125.923 102.418 122.962 105.379 122.962 109.031C122.962 112.683 125.923 115.643 129.574 115.643Z" stroke="#6EDBFF" stroke-width="1.2" stroke-miterlimit="10" stroke-linecap="round" stroke-linejoin="round"/>
<path d="M154.374 106.26C154.374 109.91 151.417 112.872 147.762 112.872C144.112 112.872 141.149 109.915 141.149 106.26C141.149 102.61 144.107 99.6478 147.762 99.6478C151.411 99.6533 154.374 102.61 154.374 106.26Z" stroke="#6EDBFF" stroke-width="1.2" stroke-miterlimit="10" stroke-linecap="round" stroke-linejoin="round"/>
<path d="M280.629 155.542C280.629 155.542 275.479 155.108 274.451 152.607" stroke="black" stroke-width="1.2" stroke-miterlimit="10" stroke-linecap="round" stroke-linejoin="round"/>
<path d="M280.877 202.949C281.147 205.038 280.597 207.05 279.476 208.655C278.613 209.183 277.975 210.414 277.096 210.919C276.002 211.546 274.661 211.436 273.539 212.024C273.463 212.063 273.38 212.107 273.303 212.145C273.303 212.145 273.303 212.145 273.298 212.145L212.99 219.972C206.548 216.218 199.969 212.937 192.647 212.019C182.05 210.689 171.48 214.591 162.015 219.571C156.546 222.446 151.269 225.716 145.855 228.684H145.85L118.714 232.207C118.681 232.213 118.659 232.213 118.626 232.218C114.206 232.746 110.166 229.608 109.589 225.183L109.402 223.743L107.748 210.991L105.731 195.485L103.796 180.562L98.8162 142.202L96.6011 125.157L267.884 102.918L277.327 175.665L279.415 191.781L280.877 202.949ZM267.598 188.499C268.356 188.395 268.889 187.697 268.78 186.938L264.817 157.999C264.712 157.246 264.014 156.713 263.256 156.817L257.534 157.603C256.775 157.708 256.242 158.406 256.352 159.164L260.315 188.103C260.419 188.856 261.117 189.39 261.876 189.285L267.598 188.499ZM261.398 146.522C262.475 146.379 263.228 145.406 263.08 144.351L261.282 131.225C261.156 130.307 260.007 129.945 259.347 130.615L253.549 136.541L247.997 133.88C247.59 133.688 247.101 133.748 246.76 134.045L235.971 143.274L229.815 137.09C229.304 136.579 228.441 136.672 228.05 137.277L223.29 144.664L212.264 140.773C211.467 140.487 210.648 141.141 210.758 141.966L212.044 151.348C212.193 152.398 213.177 153.135 214.254 152.986L261.398 146.522ZM253.455 190.439C254.214 190.335 254.741 189.637 254.637 188.878L252.098 170.333C251.993 169.58 251.295 169.047 250.537 169.151L244.815 169.937C244.056 170.042 243.523 170.74 243.633 171.498L246.172 190.044C246.277 190.797 246.975 191.33 247.733 191.225L253.455 190.439ZM239.313 192.374C240.066 192.27 240.599 191.572 240.494 190.813L237.219 166.931C237.114 166.172 236.416 165.645 235.657 165.749L229.936 166.535C229.177 166.639 228.644 167.338 228.754 168.091L232.03 191.978C232.134 192.731 232.832 193.265 233.585 193.16L239.313 192.374ZM225.165 194.314C225.923 194.21 226.456 193.512 226.346 192.753L224.065 176.088C223.961 175.329 223.257 174.802 222.504 174.906L216.777 175.692C216.024 175.797 215.491 176.495 215.595 177.248L217.882 193.919C217.986 194.672 218.684 195.205 219.443 195.1L225.165 194.314ZM192.658 201.224C198.897 192.6 201.958 181.661 200.397 170.284C199.32 162.424 196.176 155.355 191.592 149.551C191.235 149.1 190.564 149.067 190.157 149.463L181.874 157.515C181.528 157.856 181.484 158.4 181.775 158.79C184.54 162.594 186.431 167.112 187.112 172.098C188.217 180.161 185.947 187.905 181.39 193.913L191.29 201.421C191.724 201.746 192.345 201.658 192.658 201.224ZM185.469 144.648C185.876 144.252 185.859 143.576 185.425 143.213C176.487 135.749 164.56 131.929 152.116 133.633C138.567 135.491 127.365 143.488 120.945 154.437C120.654 154.926 120.868 155.564 121.385 155.8L131.911 160.577C132.356 160.78 132.867 160.615 133.131 160.209C137.622 153.195 145.047 148.127 153.941 146.907C162.07 145.797 169.886 148.116 175.91 152.755C176.301 153.052 176.839 153.03 177.186 152.695L185.469 144.648ZM165.165 154.965C165.192 154.789 164.95 154.718 164.879 154.871L157.816 169.729C157.568 169.729 157.316 169.751 157.068 169.783C153.583 170.262 151.149 173.477 151.621 176.962C151.863 178.704 152.786 180.188 154.084 181.172C155.381 182.156 157.057 182.645 158.794 182.409C160.537 182.173 162.015 181.249 163.005 179.952C163.988 178.649 164.478 176.978 164.241 175.236C164.06 173.867 163.444 172.658 162.565 171.729L165.165 154.965ZM132.614 209.457L140.123 199.569C134.115 195.007 129.85 188.158 128.745 180.1C128.162 175.863 128.514 171.718 129.635 167.865C129.773 167.398 129.553 166.903 129.107 166.7L118.598 161.929C118.076 161.693 117.46 161.956 117.284 162.49C115.24 168.547 114.542 175.159 115.465 181.92C117.026 193.303 122.918 203.021 131.246 209.644C131.669 209.974 132.284 209.892 132.614 209.457Z" fill="white"/>
<path d="M110.309 118.001C113.96 118.001 116.921 115.04 116.921 111.388C116.921 107.737 113.96 104.776 110.309 104.776C106.657 104.776 103.696 107.737 103.696 111.388C103.696 115.04 106.657 118.001 110.309 118.001Z" stroke="white" stroke-width="1.2" stroke-miterlimit="10" stroke-linecap="round" stroke-linejoin="round"/>
<path d="M224.746 242.854C233.123 240.425 241.456 238.067 248.898 236.863" stroke="black" stroke-width="1.2" stroke-miterlimit="10" stroke-linecap="round" stroke-linejoin="round"/>
<path d="M284.08 250.274C281.294 248.483 278.353 246.636 275.044 246.388C271.735 246.141 268.014 248.109 267.508 251.385C267.431 251.885 267.431 252.396 267.327 252.891C266.942 254.754 265.178 256.084 263.326 256.529C261.473 256.975 259.538 256.711 257.653 256.442C247.199 254.958 236.744 253.468 226.29 251.984C224.449 251.72 222.569 251.462 220.75 251.835C218.93 252.209 217.155 253.342 216.534 255.095C215.836 257.063 216.726 259.25 216.446 261.322C215.946 264.978 212.093 267.132 208.547 268.138C197.725 271.211 186.127 268.93 175.348 265.703C164.57 262.477 153.912 258.299 142.688 257.541" stroke="white" stroke-width="1.2" stroke-miterlimit="10" stroke-linecap="round" stroke-linejoin="round"/>
<path d="M227.406 229.493H227.401" stroke="black" stroke-width="1.2" stroke-miterlimit="10" stroke-linecap="round" stroke-linejoin="round"/>
<path d="M179.323 248.922C182.401 237.819 183.929 226.436 184.419 214.899" stroke="black" stroke-width="1.2" stroke-miterlimit="10" stroke-linecap="round" stroke-linejoin="round"/>
<path d="M276.567 17.5411C276.429 16.156 276.737 14.6664 277.276 13.3802C277.567 12.6767 278.023 11.9621 278.749 11.7423C279.452 11.5334 280.228 11.8687 280.728 12.4019C281.228 12.935 281.508 13.6331 281.756 14.3256C283.976 20.5092 284.196 28.4847 283.564 35.0255" stroke="black" stroke-width="1.2" stroke-miterlimit="10" stroke-linecap="round" stroke-linejoin="round"/>
<path d="M281.569 74.7651C282.85 66.284 282.311 57.539 280.024 49.2723C279.293 46.6284 279.574 43.8142 280.882 41.4067C281.998 39.351 282.921 37.1524 283.559 35.0308C285.768 27.66 286.835 19.9483 286.73 12.2587C286.708 10.5988 285.757 2.45292 289.05 1.67791C293.15 0.699532 294.98 9.21914 295.233 11.1869C296.888 23.8179 292.205 36.0751 290.127 41.022" stroke="black" stroke-width="1.2" stroke-miterlimit="10" stroke-linecap="round" stroke-linejoin="round"/>
<path d="M295.272 22.1138C295.58 20.3933 295.882 18.585 296.745 17.4857C297.608 16.3864 299.257 15.6498 300.664 16.1445C302.049 16.6337 302.648 18.0573 302.978 19.3435C304.369 24.829 303.473 30.6224 301.39 35.932C299.312 41.2416 296.091 46.1445 292.749 50.9265" stroke="black" stroke-width="1.2" stroke-miterlimit="10" stroke-linecap="round" stroke-linejoin="round"/>
<path d="M302.72 31.8263C303.533 30.9578 304.38 30.4082 305.204 30.4686C308.848 30.738 309.799 37.3998 304.852 47.5024C299.944 57.506 294.766 60.8644 294.766 60.8644" stroke="black" stroke-width="1.2" stroke-miterlimit="10" stroke-linecap="round" stroke-linejoin="round"/>
<path d="M299.652 55.9336C299.762 55.7962 305.836 48.6233 309.101 49.5577C312.366 50.4921 311.365 60.1605 303.769 66.0253C296.173 71.89 284.899 74.358 284.899 74.358" stroke="black" stroke-width="1.2" stroke-miterlimit="10" stroke-linecap="round" stroke-linejoin="round"/>
<path d="M272.578 75.6003C272.875 77.3702 271.676 79.0412 269.907 79.338C268.137 79.6348 266.466 78.4365 266.169 76.6667" stroke="black" stroke-width="1.2" stroke-miterlimit="10" stroke-linecap="round" stroke-linejoin="round"/>
<path d="M97.5842 96.6194C97.881 98.3893 96.6828 100.06 94.9129 100.357C93.143 100.654 91.4721 99.4556 91.1753 97.6857" stroke="black" stroke-width="1.2" stroke-miterlimit="10" stroke-linecap="round" stroke-linejoin="round"/>
<path d="M270.521 62.7718C270.488 56.8245 269.158 50.8938 266.679 45.4907C265.558 43.0447 265.2 40.3185 265.629 37.6637C267.069 28.6768 267.91 19.2448 267.448 10.291C267.404 9.48301 267.36 8.65853 267.547 7.87253C267.734 7.08652 268.196 6.32251 268.927 5.97073C269.779 5.55849 270.84 5.80583 271.604 6.36098C272.406 6.94361 272.945 7.81206 273.423 8.67502C275.33 12.1158 276.523 15.9084 276.963 19.822C277.551 25.0656 277.655 29.7981 276.54 35.6025" stroke="black" stroke-width="1.2" stroke-miterlimit="10" stroke-linecap="round" stroke-linejoin="round"/>
<path d="M322.689 38.8065C322.689 38.8065 322.332 41.1645 319.781 47.0788" stroke="black" stroke-width="1.2" stroke-miterlimit="10" stroke-linecap="round" stroke-linejoin="round"/>
<path d="M326.854 39.4167C326.854 39.4167 325.991 42.7696 323.584 47.9089" stroke="black" stroke-width="1.2" stroke-miterlimit="10" stroke-linecap="round" stroke-linejoin="round"/>
<path d="M235.365 49.3823C231.782 61.6286 223.872 72.5611 213.363 79.7946" stroke="black" stroke-width="1.2" stroke-miterlimit="10" stroke-linecap="round" stroke-linejoin="round"/>
<path d="M231.525 76.5624C229.755 74.8585 228.578 72.7423 228.188 70.5492C227.798 68.3561 228.188 66.097 229.304 64.1293C232.432 66.916 233.322 72.429 231.525 76.5624Z" stroke="black" stroke-width="1.2" stroke-miterlimit="10" stroke-linecap="round" stroke-linejoin="round"/>
<path d="M224.444 83.6253C224.296 84.4443 224.059 85.2522 223.73 86.0053C223.064 85.3677 222.487 84.6751 221.998 83.9386C221.185 82.7074 220.629 81.3662 220.388 79.9976C219.997 77.8045 220.393 75.5454 221.503 73.5776C224.059 75.8532 225.12 79.9481 224.444 83.6253Z" stroke="black" stroke-width="1.2" stroke-miterlimit="10" stroke-linecap="round" stroke-linejoin="round"/>
<path d="M216.035 64.1407C217.98 62.6346 220.245 61.7827 222.466 61.7167C224.692 61.6508 226.868 62.3653 228.655 63.7559C225.445 66.4382 219.86 66.5207 216.035 64.1407Z" stroke="black" stroke-width="1.2" stroke-miterlimit="10" stroke-linecap="round" stroke-linejoin="round"/>
<path d="M209.06 70.2908C211.33 69.3509 213.737 69.1201 215.903 69.6368C218.068 70.1534 219.981 71.4176 221.339 73.226C217.535 74.9739 212.127 73.5888 209.06 70.2908Z" stroke="black" stroke-width="1.2" stroke-miterlimit="10" stroke-linecap="round" stroke-linejoin="round"/>
<path d="M215.491 96.1027C215.458 96.2456 215.271 95.8444 215.232 95.9873C212.182 93.3765 210.247 89.5124 209.978 85.5054C209.972 85.4725 209.967 85.434 209.967 85.401C209.895 84.2468 209.972 83.054 210.489 82.0207C207.889 82.29 205.075 81.9107 202.728 80.7675C200.375 79.6297 198.424 77.6179 197.028 75.4083C199.941 74.7103 203.019 74.5509 205.932 75.249C208.845 75.9415 211.588 77.53 213.424 79.8935C214.534 81.3281 215.293 83.0045 215.743 84.7634C215.996 85.7308 216.156 86.7312 216.238 87.726C216.458 90.5293 216.068 93.349 215.491 96.1027Z" stroke="black" stroke-width="1.2" stroke-miterlimit="10" stroke-linecap="round" stroke-linejoin="round"/>
<path d="M211.555 91.7C210.934 93.9975 209.818 96.1632 208.301 98.0045C207.757 98.6751 207.136 99.3127 206.356 99.6864C205.575 100.06 204.602 100.121 203.866 99.6535C202.821 98.9884 202.618 97.5538 202.656 96.3116C202.717 94.4428 202.92 92.9642 203.58 91.2108C202.211 93.4094 200.227 95.2178 197.913 96.383C197.385 96.6524 196.825 96.8887 196.237 96.9437C195.643 96.9932 195.011 96.8393 194.593 96.416C193.862 95.674 194.049 94.4483 194.368 93.4534C195.165 90.98 196.456 88.8913 198.199 87.0335C198.518 86.6927 198.853 86.3629 199.199 86.0386C198.105 86.6597 196.902 87.1049 195.67 87.3578C195.654 87.3578 195.643 87.3633 195.637 87.3633C195.104 87.4677 194.555 87.5391 194.016 87.5776C194.005 87.5831 193.988 87.5831 193.983 87.5831C193.796 87.5941 193.609 87.5996 193.422 87.6051C192.438 87.6216 191.279 87.3962 190.866 86.5058C190.421 85.5439 191.136 84.4556 191.894 83.7081C194.164 81.4655 197.193 79.9979 200.359 79.6132" stroke="black" stroke-width="1.2" stroke-miterlimit="10" stroke-linecap="round" stroke-linejoin="round"/>
<path d="M116.915 62.9863C124.566 59.485 133.432 58.71 141.573 60.8261" stroke="black" stroke-width="1.2" stroke-miterlimit="10" stroke-linecap="round" stroke-linejoin="round"/>
<path d="M132.125 53.1641C132.042 54.7855 131.493 56.2806 130.569 57.4239C129.646 58.5671 128.349 59.3421 126.887 59.639C126.925 56.8797 129.289 54.0545 132.125 53.1641Z" stroke="black" stroke-width="1.2" stroke-miterlimit="10" stroke-linecap="round" stroke-linejoin="round"/>
<path d="M140.198 52.9722C140.116 54.5936 139.566 56.0887 138.643 57.232C137.719 58.3752 136.422 59.1503 134.96 59.4471C135.004 56.6878 137.362 53.8626 140.198 52.9722Z" stroke="black" stroke-width="1.2" stroke-miterlimit="10" stroke-linecap="round" stroke-linejoin="round"/>
<path d="M132.619 66.2513C131.03 65.9325 129.629 65.1685 128.634 64.0912C127.639 63.0138 127.056 61.6177 126.979 60.1227C129.7 60.5679 132.152 63.3162 132.619 66.2513Z" stroke="black" stroke-width="1.2" stroke-miterlimit="10" stroke-linecap="round" stroke-linejoin="round"/>
<path d="M138.698 67.0707C137.247 66.3451 136.092 65.2458 135.416 63.9432C134.74 62.6405 134.542 61.1399 134.861 59.6833C137.373 60.8266 139.016 64.119 138.698 67.0707Z" stroke="black" stroke-width="1.2" stroke-miterlimit="10" stroke-linecap="round" stroke-linejoin="round"/>
<path d="M143.926 61.2991C144.663 61.1122 145.289 60.6285 145.833 60.1008C147.741 58.232 148.851 55.5772 148.84 52.9059C148.752 52.9498 148.867 52.675 148.785 52.7245C147.163 53.6259 145.591 54.6538 144.289 55.9729C142.986 57.2921 141.964 58.9356 141.601 60.7549C141.216 62.6952 141.606 64.7454 142.519 66.4988C143.431 68.2522 144.833 69.7197 146.443 70.8685C146.938 69.2195 147.103 67.3782 146.658 65.7128C146.207 64.0473 145.179 62.4753 143.926 61.2991Z" stroke="black" stroke-width="1.2" stroke-miterlimit="10" stroke-linecap="round" stroke-linejoin="round"/>
<path d="M91.9114 62.7988C91.3343 59.6548 91.3672 56.4338 91.9334 53.2898C93.1866 46.3532 97.0726 39.8618 102.816 35.7394C103.701 35.1073 104.669 34.5027 105.818 34.5467C106.329 34.5632 106.84 34.7336 107.208 35.0854C108.351 36.1462 107.719 37.8281 107.098 39.1473C103.19 47.3866 100.255 56.7966 99.4361 66.0198C99.1998 68.6636 98.2709 71.203 96.6549 73.3026C93.7252 77.1172 91.708 82.251 92.0928 86.5767" stroke="black" stroke-width="1.2" stroke-miterlimit="10" stroke-linecap="round" stroke-linejoin="round"/>
<path d="M91.9289 53.3117C91.9179 50.7339 92.3741 48.5573 92.9842 45.6001C93.1821 44.6437 92.9292 43.495 92.1487 42.9068C91.5221 42.4286 90.6152 42.4726 89.9117 42.8244C89.2081 43.1762 88.6749 43.7918 88.2022 44.4184C85.5694 47.8977 84.2118 52.2014 83.6511 56.5272C83.0905 60.853 83.2829 65.2337 83.4752 69.5924" stroke="black" stroke-width="1.2" stroke-miterlimit="10" stroke-linecap="round" stroke-linejoin="round"/>
<path d="M83.4859 57.2967C83.6618 55.4498 83.7113 53.592 83.6288 51.7342C83.5903 50.8877 83.4419 49.8983 82.6999 49.4861C82.2437 49.2333 81.6666 49.2827 81.1939 49.4971C80.7212 49.717 80.3309 50.0797 79.9736 50.459C77.2748 53.3282 75.8567 57.3626 76.1645 61.2926" stroke="black" stroke-width="1.2" stroke-miterlimit="10" stroke-linecap="round" stroke-linejoin="round"/>
<path d="M102.959 95.3661L109.841 98.7465L103.047 102.792" stroke="black" stroke-width="1.2" stroke-miterlimit="10" stroke-linecap="round" stroke-linejoin="round"/>
<path d="M80.9298 101.769C77.7198 93.2279 77.1097 83.7354 79.1544 74.8475C79.5941 72.9348 79.3522 70.945 78.5333 69.1641C76.3676 64.4481 75.6641 58.8966 75.3343 53.7519C74.9385 47.6178 75.4277 41.4617 75.4607 35.3111C75.4662 34.4536 75.4607 33.5742 75.1804 32.7607C74.9001 31.9472 74.301 31.1942 73.4765 30.9578C72.5805 30.705 71.5967 31.1118 70.9316 31.7658C70.2665 32.4199 69.8653 33.2939 69.508 34.1513C64.4017 46.3646 65.1877 60.8864 71.5802 72.4785" stroke="black" stroke-width="1.2" stroke-miterlimit="10" stroke-linecap="round" stroke-linejoin="round"/>
<path d="M66.3082 47.4806C66.3082 47.4806 64.7142 40.9343 61.0095 42.0611C57.3104 43.1878 55.7274 58.8199 66.7479 76.6726" stroke="black" stroke-width="1.2" stroke-miterlimit="10" stroke-linecap="round" stroke-linejoin="round"/>
<path d="M60.4438 63.1455C60.4822 63.2609 56.3324 58.1107 53.8919 59.298C50.2312 60.6721 54.7933 75.073 65.8523 83.741" stroke="black" stroke-width="1.2" stroke-miterlimit="10" stroke-linecap="round" stroke-linejoin="round"/>
<path d="M57.5646 74.7048C57.5646 74.7048 54.1842 72.1984 52.2055 74.2486C50.2267 76.2988 54.3271 85.7473 66.7548 91.689" stroke="black" stroke-width="1.2" stroke-miterlimit="10" stroke-linecap="round" stroke-linejoin="round"/>
<path d="M59.9775 87.561C59.9775 87.561 57.9438 86.8849 57.1468 88.1381C55.9431 90.0234 60.6756 101.764 80.9302 101.764" stroke="black" stroke-width="1.2" stroke-miterlimit="10" stroke-linecap="round" stroke-linejoin="round"/>
<path d="M186.853 214.739C187.138 222.209 188.749 229.624 191.563 236.549" stroke="black" stroke-width="1.2" stroke-miterlimit="10" stroke-linecap="round" stroke-linejoin="round"/>
<path d="M187.843 214.712C191.416 223.715 197.187 231.823 204.492 238.177" stroke="black" stroke-width="1.2" stroke-miterlimit="10" stroke-linecap="round" stroke-linejoin="round"/>
<path d="M190.849 214.789C194.449 219.867 199.358 223.869 204.189 227.793C210.807 233.169 217.518 238.6 224.9 242.804C224.983 242.854 225.059 242.903 225.147 242.942L225.153 242.947" stroke="black" stroke-width="1.2" stroke-miterlimit="10" stroke-linecap="round" stroke-linejoin="round"/>
<path d="M268.779 186.938C268.883 187.697 268.355 188.395 267.597 188.499L261.875 189.285C261.117 189.389 260.418 188.856 260.314 188.103L256.351 159.164C256.247 158.406 256.774 157.713 257.533 157.603L263.255 156.817C264.013 156.713 264.711 157.246 264.816 157.999L268.779 186.938Z" fill="#6EDBFF"/>
<path d="M263.079 144.346C263.228 145.401 262.475 146.374 261.397 146.517L214.254 152.981C213.176 153.129 212.193 152.392 212.044 151.343L210.758 141.96C210.648 141.136 211.467 140.482 212.264 140.767L223.29 144.659L228.05 137.272C228.44 136.667 229.303 136.573 229.814 137.085L235.971 143.268L246.76 134.04C247.101 133.743 247.59 133.682 247.997 133.875L253.548 136.535L259.347 130.61C260.007 129.939 261.15 130.302 261.282 131.22L263.079 144.346Z" fill="#6EDBFF"/>
<path d="M254.635 188.878C254.74 189.637 254.212 190.335 253.454 190.439L247.732 191.225C246.973 191.33 246.275 190.796 246.171 190.043L243.631 171.498C243.527 170.74 244.055 170.047 244.813 169.937L250.535 169.151C251.293 169.047 251.992 169.58 252.096 170.333L254.635 188.878Z" fill="#6EDBFF"/>
<path d="M240.493 190.813C240.597 191.572 240.064 192.27 239.311 192.374L233.584 193.16C232.831 193.265 232.133 192.732 232.028 191.979L228.752 168.091C228.648 167.338 229.176 166.64 229.934 166.535L235.656 165.749C236.415 165.645 237.113 166.172 237.217 166.931L240.493 190.813Z" fill="#6EDBFF"/>
<path d="M226.345 192.753C226.45 193.512 225.922 194.21 225.164 194.314L219.442 195.1C218.683 195.205 217.991 194.671 217.881 193.918L215.594 177.247C215.49 176.494 216.023 175.796 216.776 175.692L222.503 174.906C223.256 174.801 223.954 175.329 224.064 176.088L226.345 192.753Z" fill="#6EDBFF"/>
<path d="M200.397 170.283C201.958 181.661 198.897 192.599 192.658 201.223C192.339 201.658 191.718 201.745 191.289 201.416L181.39 193.907C185.952 187.905 188.217 180.155 187.112 172.092C186.43 167.106 184.534 162.588 181.775 158.785C181.484 158.394 181.528 157.85 181.874 157.509L190.157 149.457C190.564 149.061 191.234 149.094 191.592 149.545C196.176 155.355 199.32 162.423 200.397 170.283Z" fill="#6EDBFF"/>
<path d="M185.424 143.213C185.864 143.576 185.88 144.247 185.468 144.648L177.179 152.7C176.833 153.036 176.294 153.058 175.904 152.761C169.874 148.122 162.064 145.797 153.934 146.912C145.041 148.133 137.621 153.2 133.125 160.214C132.866 160.621 132.35 160.786 131.904 160.582L121.379 155.806C120.862 155.569 120.648 154.932 120.939 154.443C127.359 143.494 138.561 135.496 152.11 133.638C164.559 131.929 176.487 135.749 185.424 143.213Z" fill="#6EDBFF"/>
<path d="M164.878 154.877C164.949 154.723 165.191 154.795 165.164 154.971L162.564 171.729C161.36 170.46 159.656 169.701 157.815 169.734L164.878 154.877Z" fill="black"/>
<path d="M164.24 175.236C164.482 176.978 163.993 178.655 163.003 179.952L160.607 178.133C160.755 177.935 160.887 177.726 160.992 177.49C161.025 177.407 161.063 177.319 161.091 177.237C161.464 177.314 161.69 177.358 161.69 177.358L162.564 171.729C163.443 172.658 164.059 173.867 164.24 175.236Z" fill="black"/>
<path d="M160.606 178.133L163.002 179.952C162.013 181.255 160.534 182.178 158.792 182.409C157.055 182.651 155.379 182.162 154.082 181.172L155.901 178.776C156.077 178.908 156.258 179.023 156.445 179.111C156.478 179.127 156.506 179.144 156.538 179.149C156.61 179.182 156.681 179.21 156.753 179.243C156.973 179.325 157.198 179.386 157.423 179.419C157.489 179.43 157.55 179.441 157.61 179.446C157.665 179.452 157.72 179.452 157.781 179.457C157.797 179.457 157.814 179.457 157.836 179.457C157.885 179.463 157.94 179.457 157.984 179.457C158.039 179.457 158.094 179.457 158.154 179.452C158.226 179.446 158.297 179.441 158.369 179.43L158.391 179.424C158.528 179.408 158.655 179.386 158.792 179.342C158.858 179.325 158.924 179.309 158.984 179.287H159.001C159.061 179.259 159.122 179.243 159.182 179.215C159.287 179.177 159.391 179.127 159.496 179.067C159.534 179.045 159.584 179.023 159.622 179.001C159.699 178.957 159.776 178.902 159.853 178.853C159.985 178.759 160.117 178.655 160.243 178.539C160.26 178.523 160.265 178.512 160.276 178.506L160.386 178.396C160.463 178.308 160.534 178.221 160.606 178.133Z" fill="black"/>
<path d="M162.564 171.724L161.69 177.352C161.69 177.352 161.459 177.308 161.091 177.231C161.69 175.604 160.931 173.768 159.326 173.037L157.238 172.086L156.232 173.059L157.82 169.723C159.656 169.695 161.36 170.454 162.564 171.724Z" fill="black"/>
<path d="M159.326 173.043C160.931 173.774 161.69 175.61 161.091 177.237C160.569 177.132 159.766 176.984 158.898 176.835L157.936 176.099L157.546 176.621V176.626C156.166 176.429 154.896 176.324 154.61 176.533C154.605 176.522 154.605 176.506 154.605 176.5L156.237 173.07L157.243 172.097L159.326 173.043Z" fill="black"/>
<path d="M161.09 177.231C161.062 177.319 161.029 177.407 160.991 177.484C160.886 177.72 160.754 177.929 160.606 178.127L158.891 176.824C159.76 176.978 160.568 177.132 161.09 177.231Z" fill="black"/>
<path d="M158.897 176.83L160.612 178.133C160.541 178.226 160.469 178.309 160.392 178.396L160.282 178.506C160.266 178.517 160.26 178.528 160.249 178.539C160.129 178.649 159.997 178.759 159.859 178.853C159.782 178.902 159.705 178.957 159.628 179.001C159.59 179.023 159.54 179.045 159.502 179.067C159.398 179.127 159.293 179.171 159.189 179.215C159.128 179.243 159.068 179.259 159.007 179.287H158.991C158.93 179.309 158.864 179.325 158.798 179.342C158.661 179.38 158.535 179.408 158.397 179.424L158.375 179.43C158.304 179.441 158.232 179.446 158.161 179.452C158.106 179.457 158.051 179.457 157.99 179.457C157.946 179.457 157.891 179.463 157.842 179.457C157.82 179.457 157.804 179.457 157.787 179.457C157.732 179.452 157.677 179.452 157.617 179.446C157.556 179.441 157.496 179.43 157.43 179.419C157.199 179.386 156.974 179.325 156.759 179.243C156.688 179.21 156.616 179.182 156.545 179.149C156.512 179.138 156.484 179.122 156.451 179.111C156.265 179.018 156.078 178.908 155.907 178.776L157.545 176.621C157.99 176.682 158.452 176.753 158.897 176.83Z" fill="black"/>
<path d="M157.931 176.099L158.893 176.835C158.448 176.758 157.986 176.687 157.536 176.627V176.621L157.931 176.099Z" fill="black"/>
<path d="M157.815 169.734L156.226 173.07L155.583 173.691C154.808 174.45 154.473 175.494 154.594 176.494L154.561 176.56C154.572 176.549 154.583 176.538 154.594 176.527C154.676 177.225 154.984 177.901 155.512 178.44C155.633 178.561 155.759 178.682 155.897 178.775L154.077 181.172C152.775 180.188 151.851 178.704 151.615 176.962C151.142 173.477 153.577 170.267 157.062 169.783C157.315 169.75 157.568 169.734 157.815 169.734Z" fill="black"/>
<path d="M157.54 176.621L155.902 178.776C155.77 178.677 155.644 178.561 155.518 178.44C154.99 177.902 154.682 177.226 154.6 176.528C154.891 176.319 156.155 176.423 157.54 176.621Z" fill="black"/>
<path d="M156.227 173.065L154.594 176.495C154.473 175.494 154.809 174.45 155.584 173.692L156.227 173.065Z" fill="black"/>
<path d="M154.594 176.494C154.594 176.505 154.594 176.522 154.6 176.527C154.583 176.538 154.572 176.549 154.567 176.56L154.594 176.494Z" fill="black"/>
<path d="M140.121 199.569L132.613 209.458C132.283 209.892 131.662 209.98 131.239 209.639C122.912 203.016 117.02 193.298 115.459 181.915C114.535 175.154 115.233 168.542 117.278 162.484C117.454 161.951 118.075 161.687 118.592 161.924L129.101 166.695C129.546 166.898 129.766 167.393 129.629 167.86C128.507 171.713 128.156 175.857 128.738 180.095C129.848 188.159 134.114 195.007 140.121 199.569Z" fill="#6EDBFF"/>
<path d="M132.273 234.939C132.729 234.785 133.174 234.62 133.625 234.455C133.174 234.626 132.729 234.79 132.273 234.939Z" fill="black"/>
<path d="M131.234 235.291C131.575 235.186 131.915 235.066 132.256 234.95C131.915 235.071 131.575 235.186 131.234 235.291Z" fill="black"/>
<path d="M131.614 240.919C131.306 240.837 131.009 240.76 130.707 240.683C131.009 240.76 131.312 240.837 131.614 240.919Z" fill="black"/>
<path d="M128.232 236.204C128.623 236.1 129.018 235.984 129.409 235.869C129.018 235.984 128.628 236.094 128.232 236.204Z" fill="black"/>
<path d="M126.837 236.56C127.216 236.472 127.585 236.373 127.958 236.269C127.585 236.373 127.216 236.472 126.837 236.56Z" fill="black"/>
<path d="M124.022 237.198C124.33 237.143 124.632 237.077 124.934 237.011C124.626 237.077 124.33 237.143 124.022 237.198Z" fill="black"/>
<path d="M122.544 237.484C122.973 237.407 123.402 237.325 123.831 237.237C123.402 237.33 122.973 237.407 122.544 237.484Z" fill="black"/>
<path d="M115.316 238.363C115.668 238.341 116.02 238.319 116.372 238.286C116.02 238.319 115.668 238.341 115.316 238.363Z" fill="black"/>
<path d="M114.431 238.413C114.722 238.396 115.019 238.38 115.316 238.363C115.019 238.385 114.728 238.396 114.431 238.413Z" fill="black"/>
<path d="M110.996 238.506C111.43 238.506 111.864 238.5 112.293 238.49C111.864 238.5 111.43 238.506 110.996 238.506Z" fill="black"/>
<path d="M198.198 87.033L195.669 87.3573C195.653 87.3573 195.642 87.3628 195.636 87.3628L194.015 87.5771C194.004 87.5826 193.987 87.5826 193.982 87.5826" stroke="black" stroke-width="1.2" stroke-miterlimit="10" stroke-linecap="round" stroke-linejoin="round"/>
<path d="M267.888 102.929L266.228 90.1443" stroke="black" stroke-width="1.2" stroke-miterlimit="10" stroke-linecap="round" stroke-linejoin="round"/>
<path d="M145.854 228.689L148.74 228.316" stroke="black" stroke-width="1.2" stroke-miterlimit="10" stroke-linecap="round" stroke-linejoin="round"/>
<path d="M212.995 219.972L273.303 212.145C273.309 212.145 273.309 212.145 273.309 212.145L273.847 212.073C276.216 211.766 278.211 210.474 279.47 208.654C280.591 207.049 281.141 205.038 280.872 202.949L279.421 191.797L277.332 175.681L267.889 102.934L96.6064 125.173" stroke="black" stroke-width="1.2" stroke-miterlimit="10" stroke-linecap="round" stroke-linejoin="round"/>
<path d="M162.564 171.724C163.449 172.658 164.059 173.867 164.241 175.231C164.483 176.973 163.993 178.649 163.004 179.947C162.015 181.249 160.536 182.173 158.794 182.403C157.057 182.645 155.38 182.156 154.083 181.167C152.786 180.177 151.857 178.699 151.621 176.956C151.148 173.472 153.583 170.262 157.068 169.778C157.315 169.745 157.573 169.723 157.815 169.723" stroke="black" stroke-width="1.2" stroke-miterlimit="10" stroke-linecap="round" stroke-linejoin="round"/>
<path d="M155.901 178.781L154.082 181.177" stroke="black" stroke-width="1.2" stroke-miterlimit="10" stroke-linecap="round" stroke-linejoin="round"/>
<path d="M163.009 179.952L160.607 178.133" stroke="black" stroke-width="1.2" stroke-miterlimit="10" stroke-linecap="round" stroke-linejoin="round"/>
<path d="M209.184 128.444L230.895 125.465" stroke="black" stroke-width="1.2" stroke-miterlimit="10" stroke-linecap="round" stroke-linejoin="round"/>
<path d="M209.905 133.704L219.238 132.423" stroke="black" stroke-width="1.2" stroke-miterlimit="10" stroke-linecap="round" stroke-linejoin="round"/>
<path d="M115.987 238.506C116.234 238.479 116.498 238.462 116.762 238.446C120.126 238.27 124.523 239.127 129.811 240.463C130.107 240.535 130.404 240.612 130.701 240.688C131.003 240.765 131.3 240.842 131.608 240.925C133.438 241.398 135.368 241.925 137.39 242.469C137.495 242.502 137.61 242.53 137.72 242.563" stroke="black" stroke-width="1.2" stroke-miterlimit="10" stroke-linecap="round" stroke-linejoin="round"/>
<path d="M52.447 188.015C58.6746 197.513 66.9249 205.681 76.5053 211.787C86.421 218.114 97.7438 222.214 109.402 223.748" stroke="black" stroke-width="1.2" stroke-miterlimit="10" stroke-linecap="round" stroke-linejoin="round"/>
<path d="M249.002 236.066C241.785 234.901 234.755 232.823 228.203 229.866C227.94 229.745 227.676 229.624 227.406 229.498H227.401C215.946 224.182 205.431 216.377 192.647 214.948C189.893 214.64 187.144 214.646 184.413 214.904C184.033 214.937 183.654 214.981 183.275 215.02C182.115 215.163 180.972 215.339 179.829 215.558C179.625 215.597 179.427 215.635 179.224 215.679C173.26 216.889 167.456 219.115 162.014 221.654C157.524 223.754 153.16 226.084 148.746 228.316C148.746 228.316 148.746 228.316 148.74 228.316C143.843 230.784 138.885 233.125 133.625 234.879C128.348 236.638 122.808 237.742 117.196 238.215" stroke="black" stroke-width="1.2" stroke-miterlimit="10" stroke-linecap="round" stroke-linejoin="round"/>
<path d="M310.575 55.6533C314.521 49.3982 318.545 41.1535 319.952 33.9036C320.215 34.9094 320.793 37.5093 322.683 38.812C323.277 39.2187 323.992 39.499 324.871 39.565C325.597 39.6199 326.251 39.565 326.85 39.4166C329.494 38.7845 331.06 36.41 332.412 33.953C331.236 44.5943 325.998 54.9113 318.132 62.1777C318.616 67.3884 317.148 72.6925 314.411 77.1502C311.674 81.6133 307.722 85.252 303.264 88.0058C296.399 92.2436 288.27 94.4037 280.206 94.1344C276.128 94.0025 272.011 93.2385 268.361 91.4026C267.625 91.0289 266.91 90.6111 266.223 90.1494C263.502 88.3301 261.243 85.8237 259.99 82.8226C259.589 81.8662 259.309 80.8603 259.138 79.838C259.116 79.7335 259.105 79.6236 259.089 79.5192C259.083 79.5137 259.089 79.5137 259.089 79.5137C258.38 74.5448 260.303 69.1967 264.217 66.0142C269.021 62.1062 276.419 61.8039 281.531 65.3052" stroke="black" stroke-width="1.2" stroke-miterlimit="10" stroke-linecap="round" stroke-linejoin="round"/>
<path d="M95.0669 113.29L98.821 142.213L103.801 180.573L105.736 195.496L107.753 211.002L109.407 223.754L109.594 225.194C110.171 229.619 114.211 232.757 118.63 232.23C118.663 232.224 118.685 232.224 118.718 232.219L145.855 228.695" stroke="black" stroke-width="1.2" stroke-miterlimit="10" stroke-linecap="round" stroke-linejoin="round"/>
<path d="M52.4471 188.015C50.6113 189.406 48.4181 190.323 46.1316 190.615C50.7047 208.401 64.5174 222.632 80.6717 231.124C89.9883 236.021 100.498 238.511 110.996 238.506C111.43 238.506 111.864 238.5 112.293 238.489C112.513 238.489 112.727 238.484 112.942 238.473C113.233 238.467 113.519 238.456 113.805 238.44C113.953 238.434 114.107 238.429 114.261 238.418C114.316 238.418 114.376 238.412 114.437 238.407C114.728 238.39 115.025 238.374 115.322 238.358C115.674 238.336 116.025 238.314 116.377 238.281C116.416 238.275 116.46 238.275 116.493 238.27C116.586 238.264 116.668 238.253 116.756 238.248C116.905 238.231 117.053 238.215 117.202 238.204C117.834 238.149 118.466 238.077 119.098 238C119.186 237.989 119.268 237.978 119.351 237.967C119.681 237.929 120.016 237.879 120.346 237.83C120.692 237.786 121.044 237.725 121.39 237.67C121.775 237.615 122.159 237.55 122.544 237.478C122.973 237.401 123.402 237.319 123.83 237.231C123.896 237.22 123.957 237.209 124.023 237.192C124.331 237.137 124.633 237.071 124.935 237.005C125.111 236.972 125.292 236.928 125.468 236.89C125.93 236.786 126.381 236.676 126.837 236.56C127.216 236.472 127.584 236.373 127.958 236.269C128.052 236.247 128.14 236.225 128.233 236.197C128.623 236.093 129.019 235.978 129.409 235.862C129.816 235.747 130.223 235.615 130.63 235.488C130.833 235.422 131.031 235.362 131.229 235.29C131.569 235.186 131.91 235.065 132.251 234.95C132.262 234.95 132.268 234.944 132.273 234.939C132.729 234.785 133.174 234.62 133.625 234.455C137.857 232.872 141.886 230.86 145.849 228.689H145.855C151.269 225.721 156.551 222.451 162.015 219.576C171.48 214.591 182.05 210.694 192.647 212.024C199.968 212.942 206.547 216.223 212.989 219.977C215.512 221.456 218.019 223 220.536 224.512C223.059 226.029 225.598 227.502 228.198 228.816C228.693 229.063 229.188 229.31 229.688 229.552C235.822 232.498 242.352 234.592 249.036 235.813" stroke="black" stroke-width="1.2" stroke-miterlimit="10" stroke-linecap="round" stroke-linejoin="round"/>
<path d="M52.3258 78.3323C48.3793 74.6442 44.3613 67.5646 42.8553 61.6449C41.8109 63.871 40.8051 66.4544 39.7552 68.6804C37.4302 67.1249 34.9842 65.6189 33 63.6401C34.1927 77.6178 38.6559 91.6834 47.8736 102.264C57.0857 112.839 71.5306 119.386 85.3488 116.94C88.7567 116.341 92.148 115.137 95.0722 113.296C97.5511 111.735 99.7057 109.717 101.25 107.217C102.696 104.875 103.454 102.088 103.476 99.3345C103.509 95.6683 102.218 92.0571 99.4639 89.6497C97.4302 87.8743 94.8083 86.8904 92.0986 86.5826C91.0487 86.4617 89.9824 86.4397 88.9326 86.5166C85.1839 86.786 81.5947 88.1436 78.2144 89.7926" stroke="black" stroke-width="1.2" stroke-miterlimit="10" stroke-linecap="round" stroke-linejoin="round"/>
<path d="M150.324 242.854C151.132 243.041 151.929 243.289 152.649 243.695C152.896 243.833 153.171 244.069 153.1 244.344C153.05 244.531 152.858 244.641 152.665 244.657C152.473 244.674 152.286 244.613 152.105 244.558C150.104 243.948 147.922 243.943 145.916 244.536C143.877 245.141 142.035 246.345 139.952 246.784C139.177 246.944 137.583 246.795 137.885 245.603C138.116 244.679 139.512 244.179 140.282 243.844C142.283 242.964 144.459 242.492 146.647 242.47C147.883 242.448 149.12 242.579 150.324 242.854Z" fill="white"/>
<path d="M194.108 238.171C192.481 238.176 190.805 238.704 189.684 239.88C189.354 240.221 189.074 240.628 188.958 241.084C188.843 241.546 188.914 242.068 189.228 242.425C189.634 242.892 190.354 242.98 190.942 242.794C191.531 242.607 192.02 242.189 192.481 241.777C192.938 241.359 193.399 240.925 193.966 240.666C194.576 240.392 195.268 240.348 195.939 240.397C196.609 240.447 197.269 240.584 197.934 240.65C198.209 240.677 199.391 240.87 199.517 240.337C199.72 239.468 198.517 239.078 198.187 238.968C196.862 238.534 195.521 238.165 194.108 238.171Z" fill="white"/>
<path d="M204.156 242.024C204.601 241.986 205.101 241.81 205.25 241.392C205.349 241.123 205.266 240.81 205.096 240.579C204.925 240.348 204.678 240.183 204.425 240.046C203.793 239.71 200.699 238.803 200.847 240.287C200.973 241.557 203.15 242.107 204.156 242.024Z" fill="white"/>
<path d="M145.849 228.69C141.886 230.861 137.857 232.878 133.625 234.456C133.174 234.626 132.729 234.785 132.273 234.939C132.268 234.945 132.262 234.95 132.251 234.95C131.916 235.066 131.575 235.187 131.229 235.291C131.031 235.363 130.833 235.423 130.63 235.489C130.228 235.615 129.816 235.742 129.409 235.863C129.019 235.978 128.623 236.094 128.233 236.198C128.14 236.226 128.052 236.248 127.958 236.27C127.584 236.374 127.216 236.473 126.837 236.561C126.381 236.676 125.93 236.792 125.468 236.891C125.292 236.929 125.111 236.973 124.935 237.006C124.633 237.072 124.331 237.138 124.023 237.193C123.957 237.215 123.896 237.226 123.83 237.231C123.402 237.319 122.973 237.402 122.544 237.479C122.159 237.55 121.775 237.616 121.39 237.671C121.044 237.726 120.697 237.776 120.346 237.831C120.016 237.875 119.681 237.924 119.351 237.968C119.263 237.979 119.18 237.99 119.098 238.001C118.466 238.078 117.834 238.144 117.202 238.204C116.965 238.232 116.729 238.254 116.493 238.27C116.454 238.276 116.416 238.276 116.377 238.281C116.025 238.314 115.674 238.336 115.322 238.358C115.025 238.38 114.728 238.391 114.437 238.408C114.376 238.413 114.316 238.419 114.261 238.419C114.107 238.43 113.953 238.435 113.805 238.441C113.519 238.457 113.233 238.468 112.942 238.474C112.727 238.485 112.513 238.49 112.293 238.49C111.864 238.501 111.43 238.507 110.996 238.507C100.498 238.512 89.9883 236.022 80.6717 231.125C64.5174 222.633 50.7102 208.397 46.1316 190.615C48.4181 190.324 50.6113 189.406 52.4471 188.016C53.6014 187.147 54.6182 186.092 55.4317 184.888C57.4709 181.87 58.3064 177.71 57.5259 174.126C57.4819 173.923 57.6028 173.73 57.8062 173.675C59.0979 173.356 60.3456 172.884 61.5328 172.29C63.7809 171.152 65.7981 169.553 67.3976 167.591C68.3485 166.431 69.2609 165.123 70.0414 163.721C71.2617 161.539 72.1521 159.142 72.3225 156.795C72.3445 156.543 72.5808 156.378 72.8282 156.46C76.258 157.57 80.1935 157.026 83.1836 155.003C83.3375 154.899 83.4859 154.795 83.6343 154.685C86.4156 152.585 88.5152 148.847 88.8066 145.363C88.8285 145.115 89.0594 144.961 89.3012 145.044C92.4617 146.083 96.2434 144.945 98.2826 142.29" stroke="black" stroke-width="1.2" stroke-miterlimit="10" stroke-linecap="round" stroke-linejoin="round"/>
<path d="M88.8831 242.947C91.9501 244.294 95.0117 245.635 98.0787 246.982C100.035 247.845 102.3 248.708 104.24 247.795C107.044 246.476 107.285 242.387 109.72 240.458C110.666 239.705 111.793 239.391 112.958 239.391C114.964 239.391 117.119 240.287 118.839 241.441C121.56 243.266 124.099 245.718 127.348 246.157C131.069 246.658 134.339 244.415 137.731 242.557C138.824 241.958 139.935 241.392 141.078 240.98C146.261 239.105 152.06 240.337 157.183 242.359C162.306 244.388 167.148 247.191 172.485 248.565C177.295 249.807 183.555 249.164 185.594 244.635C186.342 242.958 186.369 240.996 187.282 239.408C189.502 235.538 195.147 236.022 199.489 237.028C210.581 239.584 221.673 242.145 232.765 244.701C235.409 245.311 238.103 245.927 240.801 245.674C243.5 245.421 246.254 244.151 247.601 241.799C248.584 240.078 248.705 238.039 248.997 236.06C249.013 235.972 249.03 235.884 249.035 235.802C249.211 234.725 249.442 233.675 249.915 232.702C251.591 229.234 255.922 227.722 259.753 228.162C263.584 228.607 267.036 230.58 270.367 232.515C276.699 236.192 283.905 236.352 291.138 234.593" stroke="white" stroke-width="1.2" stroke-miterlimit="10" stroke-linecap="round" stroke-linejoin="round"/>
</svg>
